<svg width="20" height="14" viewBox="0 0 20 14" fill="none" xmlns="http://www.w3.org/2000/svg">
<path fill-rule="evenodd" clip-rule="evenodd" d="M1 2H19C19.5523 2 20 1.55228 20 1C20 0.447715 19.5523 0 19 0H1C0.447715 0 0 0.447715 0 1C0 1.55228 0.447715 2 1 2ZM1 8H19C19.5523 8 20 7.55228 20 7C20 6.44772 19.5523 6 19 6H1C0.447715 6 0 6.44772 0 7C0 7.55228 0.447715 8 1 8ZM19 14H1C0.447715 14 0 13.5523 0 13C0 12.4477 0.447715 12 1 12H19C19.5523 12 20 12.4477 20 13C20 13.5523 19.5523 14 19 14Z" fill="#4A4A4A"/>
</svg>
