<svg width="24" height="24" viewBox="0 0 24 24" fill="none" xmlns="http://www.w3.org/2000/svg">
<rect width="23.5276" height="24" fill="#D8D8D8" fill-opacity="0.01"/>
<path fill-rule="evenodd" clip-rule="evenodd" d="M4.79061 15.84C7.7458 18.8546 12.5734 18.8546 15.5286 15.84C18.4832 12.8262 18.4832 7.93581 15.5324 4.89038C12.5734 1.87199 7.7458 1.87199 4.79061 4.8865C1.83542 7.90102 1.83542 12.8255 4.79061 15.84ZM14.2331 6.20911C16.4729 8.52084 16.4729 12.2331 14.2331 14.5179C11.9939 16.8021 8.32708 16.8021 6.08786 14.5179C3.84864 12.2337 3.84864 8.49329 6.08786 6.20911C8.32708 3.92493 11.9939 3.92493 14.2331 6.20911Z" fill="#4A4A4A"/>
<path d="M15.5286 15.84L15.6714 15.9801L15.5286 15.84ZM4.79061 15.84L4.93343 15.7L4.79061 15.84ZM15.5324 4.89038L15.676 4.7512L15.6752 4.75037L15.5324 4.89038ZM4.79061 4.8865L4.93343 5.02651L4.79061 4.8865ZM14.2331 14.5179L14.0903 14.3779L14.2331 14.5179ZM14.2331 6.20911L14.3767 6.06994L14.3759 6.0691L14.2331 6.20911ZM6.08786 14.5179L6.23068 14.3779L6.08786 14.5179ZM6.08786 6.20911L6.23068 6.34912L6.08786 6.20911ZM15.3858 15.7C12.509 18.6346 7.81021 18.6346 4.93343 15.7L4.64779 15.9801C7.6814 19.0746 12.6378 19.0746 15.6714 15.9801L15.3858 15.7ZM15.3887 5.02955C18.2647 7.99781 18.2637 12.7643 15.3858 15.7L15.6714 15.9801C18.7026 12.888 18.7016 7.87381 15.676 4.75121L15.3887 5.02955ZM4.93343 5.02651C7.81014 2.09205 12.5089 2.09192 15.3896 5.03039L15.6752 4.75037C12.6379 1.65206 7.68146 1.65192 4.64779 4.74649L4.93343 5.02651ZM4.93343 15.7C2.05448 12.7633 2.05448 7.96325 4.93343 5.02651L4.64779 4.74649C1.61636 7.83878 1.61636 12.8878 4.64779 15.9801L4.93343 15.7ZM14.3759 14.6579C16.6924 12.2949 16.6913 8.45877 14.3767 6.06994L14.0894 6.34828C16.2546 8.58291 16.2534 12.1713 14.0903 14.3779L14.3759 14.6579ZM5.94504 14.6579C8.26268 17.0221 12.0583 17.0221 14.3759 14.6579L14.0903 14.3779C11.9295 16.5821 8.39149 16.5821 6.23068 14.3779L5.94504 14.6579ZM5.94504 6.0691C3.62958 8.43106 3.62958 12.2959 5.94504 14.6579L6.23068 14.3779C4.0677 12.1715 4.0677 8.55553 6.23068 6.34912L5.94504 6.0691ZM14.3759 6.0691C12.0583 3.70493 8.26268 3.70493 5.94504 6.0691L6.23068 6.34912C8.39149 4.14492 11.9295 4.14492 14.0903 6.34912L14.3759 6.0691Z" fill="#4A4A4A"/>
<path d="M14.3242 15.9341L19.5493 21.264C19.9072 21.6292 20.4877 21.6292 20.8456 21.264C21.2036 20.8989 21.2036 20.3068 20.8456 19.9416L15.6205 14.6118C15.2626 14.2466 14.6821 14.2466 14.3242 14.6118C13.9662 14.9769 13.9662 15.569 14.3242 15.9341Z" fill="#4A4A4A" stroke="#4A4A4A" stroke-width="0.4"/>
</svg>
