<svg width="26" height="26" viewBox="0 0 26 26" fill="none" xmlns="http://www.w3.org/2000/svg">
<rect x="0.274414" width="24.8098" height="25.0435" fill="#D8D8D8" fill-opacity="0.01"/>
<path fill-rule="evenodd" clip-rule="evenodd" d="M5.32546 16.5286C8.44171 19.6742 13.5324 19.6742 16.6487 16.5286C19.7642 13.3837 19.7642 8.28071 16.6526 5.10287C13.5324 1.95324 8.44171 1.95324 5.32546 5.09882C2.20922 8.24441 2.20922 13.383 5.32546 16.5286ZM15.2824 6.47921C17.6443 8.89145 17.6443 12.7651 15.2824 15.1493C12.9211 17.5327 9.0545 17.5327 6.69325 15.1493C4.33199 12.7658 4.33199 8.86271 6.69325 6.47921C9.0545 4.09571 12.9211 4.09571 15.2824 6.47921Z" fill="#4A4A4A"/>
<path d="M16.6487 16.5286L16.5066 16.3879L16.6487 16.5286ZM5.32546 16.5286L5.46755 16.3879L5.32546 16.5286ZM16.6526 5.10287L16.7955 4.96294L16.7947 4.96211L16.6526 5.10287ZM5.32546 5.09882L5.18338 4.95807L5.32546 5.09882ZM15.2824 15.1493L15.1403 15.0085L15.2824 15.1493ZM15.2824 6.47921L15.4253 6.33929L15.4245 6.33846L15.2824 6.47921ZM6.69325 15.1493L6.55116 15.29L6.69325 15.1493ZM6.69325 6.47921L6.55116 6.33846L6.69325 6.47921ZM16.5066 16.3879C13.4686 19.4545 8.50554 19.4545 5.46755 16.3879L5.18338 16.6694C8.37788 19.8939 13.5962 19.8939 16.7907 16.6694L16.5066 16.3879ZM16.5097 5.24279C19.5456 8.34328 19.5445 13.3213 16.5066 16.3879L16.7907 16.6694C19.9839 13.4461 19.9829 8.21814 16.7955 4.96295L16.5097 5.24279ZM5.46755 5.23958C8.50547 2.17306 13.4685 2.17292 16.5106 5.24363L16.7947 4.96211C13.5963 1.73356 8.37795 1.73343 5.18338 4.95807L5.46755 5.23958ZM5.46755 16.3879C2.42853 13.3202 2.42853 8.30721 5.46755 5.23958L5.18338 4.95807C1.98991 8.1816 1.98991 13.4458 5.18338 16.6694L5.46755 16.3879ZM15.4245 15.29C17.8641 12.8274 17.8629 8.82882 15.4253 6.33929L15.1395 6.61914C17.4257 8.95408 17.4246 12.7027 15.1403 15.0085L15.4245 15.29ZM6.55116 15.29C8.99068 17.7525 12.985 17.7525 15.4245 15.29L15.1403 15.0085C12.8573 17.313 9.11833 17.313 6.83533 15.0085L6.55116 15.29ZM6.55116 6.33846C4.11268 8.7999 4.11268 12.8286 6.55116 15.29L6.83533 15.0085C4.55129 12.7029 4.55129 8.92552 6.83533 6.61997L6.55116 6.33846ZM15.4245 6.33846C12.985 3.87597 8.99068 3.87597 6.55116 6.33846L6.83533 6.61997C9.11833 4.31546 12.8573 4.31546 15.1403 6.61997L15.4245 6.33846Z" fill="#4A4A4A"/>
<path d="M15.3778 16.6269L20.8875 22.1885C21.265 22.5696 21.8771 22.5696 22.2545 22.1885C22.632 21.8075 22.632 21.1897 22.2545 20.8087L16.7448 15.2471C16.3674 14.866 15.7553 14.866 15.3778 15.2471C15.0004 15.6281 15.0004 16.2459 15.3778 16.6269Z" fill="#4A4A4A" stroke="#4A4A4A" stroke-width="0.4"/>
</svg>
