<svg width="34" height="31" viewBox="0 0 34 31" fill="none" xmlns="http://www.w3.org/2000/svg">
<path d="M12.1574 26.4286C10.9112 26.4286 9.89746 27.4538 9.89746 28.714C9.89746 29.9745 10.9112 31 12.1574 31C13.4035 31 14.4174 29.9745 14.4174 28.714C14.4174 27.4538 13.4036 26.4286 12.1574 26.4286Z" fill="#00893D"/>
<path d="M21.1955 26.4286C19.9493 26.4286 18.9355 27.4538 18.9355 28.714C18.9355 29.9745 19.9493 31 21.1955 31C22.4416 31 23.4555 29.9745 23.4555 28.714C23.4555 27.4538 22.4417 26.4286 21.1955 26.4286Z" fill="#00893D"/>
<path d="M19.4093 20.6873C19.4433 20.6908 19.4771 20.6925 19.5105 20.6925C20.003 20.6925 20.4256 20.3219 20.4774 19.8242L20.9261 15.5058C20.9813 14.974 20.5927 14.4985 20.0581 14.4437C19.5232 14.3896 19.0452 14.7752 18.9901 15.3068L18.5414 19.6252C18.4861 20.1568 18.8747 20.6323 19.4093 20.6873Z" fill="#00893D"/>
<mask id="path-4-inside-1" fill="white">
<path fill-rule="evenodd" clip-rule="evenodd" d="M26.9731 10.8391C27.2744 10.8391 27.5587 10.9779 27.743 11.215C27.9272 11.452 27.9907 11.7605 27.915 12.0503L24.9032 23.5664C24.7916 23.9929 24.4044 24.2906 23.9613 24.2906H9.83402C9.3909 24.2906 9.0037 23.9929 8.89211 23.5664L5.88821 12.0797C5.88263 12.0608 5.87757 12.0415 5.87316 12.0222L5.06593 8.93548H1.82963C1.29217 8.93548 0.856445 8.50219 0.856445 7.96774C0.856445 7.43329 1.29217 7 1.82963 7H5.8184C6.26152 7 6.64872 7.29768 6.76031 7.72413L7.5748 10.8391H26.9731ZM10.5866 22.3549H23.209L25.7145 12.7743H8.0811L10.5866 22.3549Z"/>
</mask>
<path fill-rule="evenodd" clip-rule="evenodd" d="M26.9731 10.8391C27.2744 10.8391 27.5587 10.9779 27.743 11.215C27.9272 11.452 27.9907 11.7605 27.915 12.0503L24.9032 23.5664C24.7916 23.9929 24.4044 24.2906 23.9613 24.2906H9.83402C9.3909 24.2906 9.0037 23.9929 8.89211 23.5664L5.88821 12.0797C5.88263 12.0608 5.87757 12.0415 5.87316 12.0222L5.06593 8.93548H1.82963C1.29217 8.93548 0.856445 8.50219 0.856445 7.96774C0.856445 7.43329 1.29217 7 1.82963 7H5.8184C6.26152 7 6.64872 7.29768 6.76031 7.72413L7.5748 10.8391H26.9731ZM10.5866 22.3549H23.209L25.7145 12.7743H8.0811L10.5866 22.3549Z" fill="#00893D"/>
<path d="M27.743 11.215L27.3482 11.5218V11.5218L27.743 11.215ZM27.915 12.0503L28.3988 12.1768L28.3988 12.1766L27.915 12.0503ZM24.9032 23.5664L25.3869 23.693L25.387 23.693L24.9032 23.5664ZM8.89211 23.5664L8.40838 23.6929L8.4084 23.693L8.89211 23.5664ZM5.88821 12.0797L6.37194 11.9532L6.37002 11.9459L6.36789 11.9386L5.88821 12.0797ZM5.87316 12.0222L6.36065 11.9111L6.35889 11.9033L6.35689 11.8957L5.87316 12.0222ZM5.06593 8.93548L5.54966 8.80898L5.45199 8.43548H5.06593V8.93548ZM6.76031 7.72413L7.24405 7.59764L7.24403 7.59755L6.76031 7.72413ZM7.5748 10.8391L7.09107 10.9656L7.18873 11.3391H7.5748V10.8391ZM23.209 22.3549V22.8549H23.595L23.6927 22.4814L23.209 22.3549ZM10.5866 22.3549L10.1029 22.4814L10.2005 22.8549H10.5866V22.3549ZM25.7145 12.7743L26.1982 12.9008L26.362 12.2743H25.7145V12.7743ZM8.0811 12.7743V12.2743H7.43353L7.59737 12.9008L8.0811 12.7743ZM28.1377 10.9081C27.8584 10.5487 27.4282 10.3391 26.9731 10.3391V11.3391C27.1207 11.3391 27.2591 11.4071 27.3482 11.5218L28.1377 10.9081ZM28.3988 12.1766C28.5138 11.7362 28.4172 11.2676 28.1377 10.9081L27.3482 11.5218C27.4373 11.6364 27.4676 11.7848 27.4313 11.924L28.3988 12.1766ZM25.387 23.693L28.3988 12.1768L27.4313 11.9238L24.4195 23.4399L25.387 23.693ZM23.9613 24.7906C24.6301 24.7906 25.2174 24.3411 25.3869 23.693L24.4195 23.4399C24.3659 23.6447 24.1787 23.7906 23.9613 23.7906V24.7906ZM9.83402 24.7906H23.9613V23.7906H9.83402V24.7906ZM8.4084 23.693C8.57798 24.3411 9.16521 24.7906 9.83402 24.7906V23.7906C9.6166 23.7906 9.42942 23.6447 9.37582 23.4399L8.4084 23.693ZM5.40448 12.2062L8.40838 23.6929L9.37584 23.4399L6.37194 11.9532L5.40448 12.2062ZM5.38566 12.1333C5.39253 12.1635 5.40025 12.1927 5.40853 12.2208L6.36789 11.9386C6.36501 11.9289 6.36261 11.9196 6.36065 11.9111L5.38566 12.1333ZM4.5822 9.06199L5.38942 12.1487L6.35689 11.8957L5.54966 8.80898L4.5822 9.06199ZM1.82963 9.43548H5.06593V8.43548H1.82963V9.43548ZM0.356445 7.96774C0.356445 8.78098 1.01868 9.43548 1.82963 9.43548V8.43548C1.56567 8.43548 1.35645 8.22341 1.35645 7.96774H0.356445ZM1.82963 6.5C1.01868 6.5 0.356445 7.15451 0.356445 7.96774H1.35645C1.35645 7.71207 1.56567 7.5 1.82963 7.5V6.5ZM5.8184 6.5H1.82963V7.5H5.8184V6.5ZM7.24403 7.59755C7.07444 6.94948 6.48722 6.5 5.8184 6.5V7.5C6.03583 7.5 6.223 7.64588 6.2766 7.85071L7.24403 7.59755ZM8.05854 10.7126L7.24405 7.59764L6.27658 7.85061L7.09107 10.9656L8.05854 10.7126ZM26.9731 10.3391H7.5748V11.3391H26.9731V10.3391ZM23.209 21.8549H10.5866V22.8549H23.209V21.8549ZM25.2307 12.6478L22.7252 22.2284L23.6927 22.4814L26.1982 12.9008L25.2307 12.6478ZM8.0811 13.2743H25.7145V12.2743H8.0811V13.2743ZM11.0703 22.2284L8.56483 12.6478L7.59737 12.9008L10.1029 22.4814L11.0703 22.2284Z" fill="#00893D" mask="url(#path-4-inside-1)"/>
<circle cx="23" cy="11" r="10" fill="#00893D" stroke="white" stroke-width="2"/>
<path d="M17.212 13.68H18.88V8.94L19.06 8.124L18.484 8.832L17.416 9.564L16.756 8.664L19.492 6.456H20.368V13.68H22V15H17.212V13.68ZM25.7006 13.848C26.1966 13.848 26.5726 13.716 26.8286 13.452C27.0926 13.188 27.2246 12.868 27.2246 12.492C27.2246 12.036 27.0886 11.7 26.8166 11.484C26.5446 11.268 26.1166 11.16 25.5326 11.16H24.6686V10.332L26.1206 8.352L26.8046 7.812L25.8566 7.92H23.8406V6.6H28.4246V7.452L26.7326 9.72L26.2046 10.044V10.104L26.7086 10.032C26.9886 10.056 27.2526 10.12 27.5006 10.224C27.7566 10.328 27.9766 10.48 28.1606 10.68C28.3526 10.872 28.5046 11.112 28.6166 11.4C28.7286 11.688 28.7846 12.02 28.7846 12.396C28.7846 12.868 28.7046 13.276 28.5446 13.62C28.3926 13.964 28.1766 14.252 27.8966 14.484C27.6246 14.716 27.3046 14.888 26.9366 15C26.5686 15.112 26.1726 15.168 25.7486 15.168C25.3966 15.168 25.0326 15.136 24.6566 15.072C24.2806 15.008 23.9766 14.916 23.7446 14.796L24.1646 13.5C24.3726 13.604 24.6006 13.688 24.8486 13.752C25.1046 13.816 25.3886 13.848 25.7006 13.848Z" fill="white"/>
</svg>
