<svg width="36" height="33" viewBox="0 0 36 33" fill="none" xmlns="http://www.w3.org/2000/svg">
<path d="M11.4282 28.4286C10.1679 28.4286 9.14258 29.4538 9.14258 30.714C9.14258 31.9745 10.1679 33 11.4282 33C12.6886 33 13.714 31.9745 13.714 30.714C13.714 29.4538 12.6887 28.4286 11.4282 28.4286Z" fill="#4A4A4A"/>
<path d="M20.5718 28.4286C19.3115 28.4286 18.2861 29.4538 18.2861 30.714C18.2861 31.9745 19.3115 33 20.5718 33C21.8321 33 22.8576 31.9745 22.8576 30.714C22.8576 29.4538 21.8322 28.4286 20.5718 28.4286Z" fill="#4A4A4A"/>
<path d="M18.764 22.6873C18.7984 22.6908 18.8325 22.6924 18.8664 22.6924C19.3644 22.6924 19.7919 22.3218 19.8442 21.8242L20.298 17.5057C20.3539 16.974 19.9609 16.4985 19.4202 16.4437C18.8792 16.3896 18.3957 16.7751 18.34 17.3068L17.8862 21.6252C17.8302 22.1568 18.2233 22.6323 18.764 22.6873Z" fill="#4A4A4A"/>
<mask id="path-4-inside-1" fill="white">
<path fill-rule="evenodd" clip-rule="evenodd" d="M26.4144 12.8391C26.7191 12.8391 27.0066 12.9779 27.193 13.215C27.3794 13.452 27.4435 13.7605 27.367 14.0503L24.3209 25.5665C24.208 25.9929 23.8164 26.2906 23.3682 26.2906H9.07991C8.63173 26.2906 8.24012 25.9929 8.12726 25.5665L5.08912 14.0797C5.08347 14.0608 5.07835 14.0415 5.07389 14.0222L4.25747 10.9355H0.984279C0.440694 10.9355 0 10.5022 0 9.96774C0 9.43329 0.440694 9 0.984279 9H5.01851C5.46669 9 5.8583 9.29768 5.97116 9.72413L6.79494 12.8391H26.4144ZM9.8408 24.355H22.607L25.1411 14.7744H7.30674L9.8408 24.355Z"/>
</mask>
<path fill-rule="evenodd" clip-rule="evenodd" d="M26.4144 12.8391C26.7191 12.8391 27.0066 12.9779 27.193 13.215C27.3794 13.452 27.4435 13.7605 27.367 14.0503L24.3209 25.5665C24.208 25.9929 23.8164 26.2906 23.3682 26.2906H9.07991C8.63173 26.2906 8.24012 25.9929 8.12726 25.5665L5.08912 14.0797C5.08347 14.0608 5.07835 14.0415 5.07389 14.0222L4.25747 10.9355H0.984279C0.440694 10.9355 0 10.5022 0 9.96774C0 9.43329 0.440694 9 0.984279 9H5.01851C5.46669 9 5.8583 9.29768 5.97116 9.72413L6.79494 12.8391H26.4144ZM9.8408 24.355H22.607L25.1411 14.7744H7.30674L9.8408 24.355Z" fill="#4A4A4A"/>
<path d="M27.193 13.215L27.5861 12.9059V12.9059L27.193 13.215ZM27.367 14.0503L27.8504 14.1782L27.8505 14.178L27.367 14.0503ZM24.3209 25.5665L24.8042 25.6944L24.8043 25.6943L24.3209 25.5665ZM8.12726 25.5665L7.64388 25.6943L7.6439 25.6944L8.12726 25.5665ZM5.08912 14.0797L5.57249 13.9519L5.57054 13.9445L5.56835 13.9372L5.08912 14.0797ZM5.07389 14.0222L5.56111 13.9099L5.55932 13.9021L5.55727 13.8943L5.07389 14.0222ZM4.25747 10.9355L4.74084 10.8076L4.64241 10.4355H4.25747V10.9355ZM5.97116 9.72413L6.45454 9.5963L6.45452 9.5962L5.97116 9.72413ZM6.79494 12.8391L6.31155 12.9669L6.40998 13.3391H6.79494V12.8391ZM22.607 24.355V24.855H22.992L23.0904 24.4829L22.607 24.355ZM9.8408 24.355L9.35742 24.4829L9.45586 24.855H9.8408V24.355ZM25.1411 14.7744L25.6245 14.9022L25.7905 14.2744H25.1411V14.7744ZM7.30674 14.7744V14.2744H6.6573L6.82337 14.9022L7.30674 14.7744ZM27.5861 12.9059C27.3038 12.5469 26.8706 12.3391 26.4144 12.3391V13.3391C26.5676 13.3391 26.7095 13.409 26.7999 13.524L27.5861 12.9059ZM27.8505 14.178C27.9672 13.7356 27.8688 13.2656 27.5861 12.9059L26.7999 13.524C26.8899 13.6384 26.9198 13.7854 26.8836 13.9227L27.8505 14.178ZM24.8043 25.6943L27.8504 14.1782L26.8836 13.9225L23.8375 25.4386L24.8043 25.6943ZM23.3682 26.7906C24.0381 26.7906 24.632 26.3451 24.8042 25.6944L23.8375 25.4385C23.784 25.6407 23.5947 25.7906 23.3682 25.7906V26.7906ZM9.07991 26.7906H23.3682V25.7906H9.07991V26.7906ZM7.6439 25.6944C7.81611 26.3451 8.41 26.7906 9.07991 26.7906V25.7906C8.85347 25.7906 8.66413 25.6407 8.61061 25.4385L7.6439 25.6944ZM4.60574 14.2076L7.64388 25.6943L8.61063 25.4386L5.57249 13.9519L4.60574 14.2076ZM4.58667 14.1345C4.59364 14.1648 4.60148 14.1941 4.60988 14.2223L5.56835 13.9372C5.56547 13.9275 5.56306 13.9183 5.56111 13.9099L4.58667 14.1345ZM3.77409 11.0633L4.59051 14.15L5.55727 13.8943L4.74084 10.8076L3.77409 11.0633ZM0.984279 11.4355H4.25747V10.4355H0.984279V11.4355ZM-0.5 9.96774C-0.5 10.7863 0.172573 11.4355 0.984279 11.4355V10.4355C0.708816 10.4355 0.5 10.2181 0.5 9.96774H-0.5ZM0.984279 8.5C0.172573 8.5 -0.5 9.14919 -0.5 9.96774H0.5C0.5 9.71739 0.708816 9.5 0.984279 9.5V8.5ZM5.01851 8.5H0.984279V9.5H5.01851V8.5ZM6.45452 9.5962C6.28231 8.9455 5.68842 8.5 5.01851 8.5V9.5C5.24495 9.5 5.43429 9.64986 5.4878 9.85205L6.45452 9.5962ZM7.27832 12.7113L6.45454 9.5963L5.48778 9.85196L6.31155 12.9669L7.27832 12.7113ZM26.4144 12.3391H6.79494V13.3391H26.4144V12.3391ZM22.607 23.855H9.8408V24.855H22.607V23.855ZM24.6577 14.6465L22.1237 24.2272L23.0904 24.4829L25.6245 14.9022L24.6577 14.6465ZM7.30674 15.2744H25.1411V14.2744H7.30674V15.2744ZM10.3242 24.2272L7.79012 14.6465L6.82337 14.9022L9.35742 24.4829L10.3242 24.2272Z" fill="#4A4A4A" mask="url(#path-4-inside-1)"/>
<circle cx="24" cy="12" r="11" fill="#00893D" stroke="white" stroke-width="2"/>
<path d="M19.01 14.9H20.4V10.95L20.55 10.27L20.07 10.86L19.18 11.47L18.63 10.72L20.91 8.88H21.64V14.9H23V16H19.01V14.9ZM24.2838 14.29C24.2838 14.0567 24.3138 13.85 24.3738 13.67C24.4338 13.4833 24.5172 13.3167 24.6238 13.17C24.7372 13.0167 24.8672 12.88 25.0138 12.76C25.1672 12.64 25.3305 12.53 25.5038 12.43C25.1772 12.2233 24.9205 11.9867 24.7338 11.72C24.5472 11.4467 24.4538 11.11 24.4538 10.71C24.4538 10.45 24.5005 10.2067 24.5938 9.98C24.6938 9.75333 24.8338 9.55667 25.0138 9.39C25.2005 9.22333 25.4238 9.09333 25.6838 9C25.9438 8.90667 26.2372 8.86 26.5638 8.86C26.8638 8.86 27.1372 8.9 27.3838 8.98C27.6305 9.06 27.8405 9.17333 28.0138 9.32C28.1938 9.46667 28.3305 9.64667 28.4238 9.86C28.5238 10.0667 28.5738 10.2967 28.5738 10.55C28.5738 10.9433 28.4838 11.2767 28.3038 11.55C28.1305 11.8233 27.8738 12.0733 27.5338 12.3C27.9338 12.5333 28.2338 12.79 28.4338 13.07C28.6405 13.35 28.7438 13.71 28.7438 14.15C28.7438 14.45 28.6872 14.7233 28.5738 14.97C28.4672 15.21 28.3138 15.4167 28.1138 15.59C27.9138 15.7633 27.6738 15.9 27.3938 16C27.1138 16.0933 26.8072 16.14 26.4738 16.14C26.1405 16.14 25.8372 16.0933 25.5638 16C25.2972 15.9133 25.0672 15.79 24.8738 15.63C24.6872 15.47 24.5405 15.2767 24.4338 15.05C24.3338 14.8233 24.2838 14.57 24.2838 14.29ZM27.5038 14.16C27.5038 14.0067 27.4672 13.8667 27.3938 13.74C27.3205 13.6133 27.2238 13.5 27.1038 13.4C26.9905 13.2933 26.8605 13.1967 26.7138 13.11C26.5738 13.0233 26.4305 12.94 26.2838 12.86C25.9705 13.04 25.7538 13.2367 25.6338 13.45C25.5205 13.6567 25.4638 13.8633 25.4638 14.07C25.4638 14.3367 25.5538 14.5667 25.7338 14.76C25.9205 14.9467 26.1772 15.04 26.5038 15.04C26.8038 15.04 27.0438 14.9667 27.2238 14.82C27.4105 14.6733 27.5038 14.4533 27.5038 14.16ZM25.6938 10.73C25.6938 10.89 25.7238 11.03 25.7838 11.15C25.8438 11.27 25.9238 11.3767 26.0238 11.47C26.1305 11.5567 26.2472 11.64 26.3738 11.72C26.5072 11.7933 26.6438 11.8633 26.7838 11.93C27.1838 11.59 27.3838 11.2167 27.3838 10.81C27.3838 10.53 27.3005 10.32 27.1338 10.18C26.9738 10.0333 26.7772 9.96 26.5438 9.96C26.2505 9.96 26.0338 10.0367 25.8938 10.19C25.7605 10.3433 25.6938 10.5233 25.6938 10.73Z" fill="white"/>
</svg>
