<svg width="30" height="28" viewBox="0 0 30 28" fill="none" xmlns="http://www.w3.org/2000/svg">
<path fill-rule="evenodd" clip-rule="evenodd" d="M14.7299 14C11.3976 14 8.69614 11.3883 8.69614 8.16668C8.69614 4.94502 11.3976 2.33334 14.7299 2.33334C18.0623 2.33334 20.7637 4.94502 20.7637 8.16668C20.7637 11.3883 18.0623 14 14.7299 14ZM25.5907 24.5V22.1667C25.5907 18.945 22.8893 16.3333 19.557 16.3333H9.90292C6.57055 16.3333 3.86914 18.945 3.86914 22.1667V24.5C3.86914 25.1443 4.40942 25.6667 5.0759 25.6667C5.74237 25.6667 6.28265 25.1443 6.28265 24.5V22.1667C6.28265 20.2337 7.9035 18.6667 9.90292 18.6667H19.557C21.5564 18.6667 23.1772 20.2337 23.1772 22.1667V24.5C23.1772 25.1443 23.7175 25.6667 24.384 25.6667C25.0504 25.6667 25.5907 25.1443 25.5907 24.5ZM18.3502 8.16668C18.3502 10.0997 16.7294 11.6667 14.73 11.6667C12.7305 11.6667 11.1097 10.0997 11.1097 8.16668C11.1097 6.23368 12.7305 4.66668 14.73 4.66668C16.7294 4.66668 18.3502 6.23368 18.3502 8.16668Z" fill="#4A4A4A"/>
<mask id="mask0" mask-type="alpha" maskUnits="userSpaceOnUse" x="3" y="2" width="23" height="24">
<path fill-rule="evenodd" clip-rule="evenodd" d="M14.7299 14C11.3976 14 8.69614 11.3883 8.69614 8.16668C8.69614 4.94502 11.3976 2.33334 14.7299 2.33334C18.0623 2.33334 20.7637 4.94502 20.7637 8.16668C20.7637 11.3883 18.0623 14 14.7299 14ZM25.5907 24.5V22.1667C25.5907 18.945 22.8893 16.3333 19.557 16.3333H9.90292C6.57055 16.3333 3.86914 18.945 3.86914 22.1667V24.5C3.86914 25.1443 4.40942 25.6667 5.0759 25.6667C5.74237 25.6667 6.28265 25.1443 6.28265 24.5V22.1667C6.28265 20.2337 7.9035 18.6667 9.90292 18.6667H19.557C21.5564 18.6667 23.1772 20.2337 23.1772 22.1667V24.5C23.1772 25.1443 23.7175 25.6667 24.384 25.6667C25.0504 25.6667 25.5907 25.1443 25.5907 24.5ZM18.3502 8.16668C18.3502 10.0997 16.7294 11.6667 14.73 11.6667C12.7305 11.6667 11.1097 10.0997 11.1097 8.16668C11.1097 6.23368 12.7305 4.66668 14.73 4.66668C16.7294 4.66668 18.3502 6.23368 18.3502 8.16668Z" fill="white"/>
</mask>
<g mask="url(#mask0)">
<rect x="0.249023" width="28.9621" height="28" fill="#00893D"/>
</g>
</svg>
